<svg width="20" height="20" viewBox="0 0 20 20" fill="none" xmlns="http://www.w3.org/2000/svg">
<path d="M16.8287 2.77623L16.8295 2.77646C17.3115 2.92984 17.6703 3.34377 17.7395 3.84799C18.435 8.94361 16.8237 12.6981 14.8823 15.178L14.8813 15.1794C14.0538 16.2439 13.0714 17.1784 11.9668 17.9516L11.9667 17.9517C11.5922 18.214 11.1964 18.4445 10.7834 18.6406C10.4566 18.7905 10.1816 18.875 9.99981 18.875C9.81803 18.875 9.54303 18.7905 9.21616 18.6406C8.80315 18.4447 8.4074 18.2143 8.03309 17.9518L8.0329 17.9517C6.92875 17.1784 5.94675 16.2439 5.11963 15.1795L5.11834 15.1778C3.17487 12.6982 1.56474 8.94409 2.26006 3.84878C2.29491 3.60274 2.39863 3.37157 2.55926 3.18196C2.7201 2.99209 2.93142 2.85166 3.16876 2.77691L3.16877 2.77691L3.1709 2.77623C4.30992 2.41188 5.45738 2.0745 6.61234 1.76438C7.92741 1.41641 9.24736 1.125 9.99981 1.125C10.751 1.125 12.0722 1.41642 13.3872 1.76437C14.5422 2.07448 15.6897 2.41186 16.8287 2.77623Z" stroke="#9016CA"/>
</svg>
