<svg width="20" height="20" viewBox="0 0 20 20" fill="none" xmlns="http://www.w3.org/2000/svg">
<path d="M17.4998 1.66675H2.49984C2.27882 1.66675 2.06686 1.75455 1.91058 1.91083C1.7543 2.06711 1.6665 2.27907 1.6665 2.50008V17.5001C1.6665 17.7211 1.7543 17.9331 1.91058 18.0893C2.06686 18.2456 2.27882 18.3334 2.49984 18.3334H17.4998C17.7209 18.3334 17.9328 18.2456 18.0891 18.0893C18.2454 17.9331 18.3332 17.7211 18.3332 17.5001V2.50008C18.3332 2.27907 18.2454 2.06711 18.0891 1.91083C17.9328 1.75455 17.7209 1.66675 17.4998 1.66675V1.66675ZM16.6665 6.66675H13.3332V10.0001H16.6665V13.3334H13.3332V16.6667H9.99984V13.3334H6.6665V16.6667H3.33317V13.3334H6.6665V10.0001H3.33317V6.66675H6.6665V3.33341H9.99984V6.66675H13.3332V3.33341H16.6665V6.66675Z" fill="#165ECA"/>
<path d="M6.6665 6.66675H9.99984V10.0001H6.6665V6.66675ZM9.99984 10.0001H13.3332V13.3334H9.99984V10.0001Z" fill="#165ECA"/>
</svg>
