<svg width="20" height="20" viewBox="0 0 20 20" fill="none" xmlns="http://www.w3.org/2000/svg">
<path d="M6.08274 13.9185C9.42107 17.256 13.6027 17.5001 14.7544 17.5001C14.9227 17.5001 15.0261 17.4951 15.0536 17.4935C15.2573 17.482 15.4497 17.3957 15.5936 17.251M6.08274 13.9185L6.43637 13.565M6.08274 13.9185C2.25607 10.0901 2.4944 5.15512 2.5069 4.94678M6.08274 13.9185L2.5069 4.94678M6.43637 13.565C9.63485 16.7626 13.6516 17.0001 14.7544 17.0001C14.9135 17.0001 15.0067 16.9954 15.0233 16.9944L15.0256 16.9942C15.1014 16.99 15.1731 16.9595 15.2287 16.9083M6.43637 13.565C6.43633 13.5649 6.43628 13.5649 6.43624 13.5649C2.76702 9.89392 2.99573 5.1479 3.00601 4.97673L3.00609 4.9752C3.01045 4.89875 3.04097 4.82629 3.09229 4.76986L4.88227 3.23477C4.88228 3.23476 4.8823 3.23475 4.88231 3.23473C4.88234 3.23471 4.88237 3.23468 4.8824 3.23466C4.94825 3.17829 5.03347 3.14978 5.11998 3.15519C5.20656 3.16061 5.28761 3.19956 5.34593 3.26377L5.34612 3.26398L8.42529 6.65064L8.42555 6.65094C8.48385 6.71495 8.51495 6.79914 8.51227 6.88567C8.5096 6.97221 8.47336 7.05432 8.41122 7.11461L8.41061 7.11519L6.36145 9.1102L6.1695 9.29707L6.21876 9.56039C6.32302 10.1177 6.66315 11.1826 7.73987 12.2602L7.74046 12.2608C8.81727 13.3349 9.87913 13.6745 10.4381 13.7812L10.7026 13.8318L10.8904 13.6387L12.8845 11.5879L12.8846 11.5878C12.945 11.5257 13.0272 11.4894 13.1139 11.4867C13.2005 11.4841 13.2848 11.5152 13.3489 11.5735L16.7364 14.6534L17.0727 14.2835L16.7369 14.6538C16.8008 14.7118 16.8396 14.7925 16.8448 14.8787C16.8501 14.9649 16.8215 15.0497 16.7651 15.1151L16.7639 15.1165L15.2287 16.9083M6.43637 13.565L15.5936 17.251M15.2287 16.9083L15.2139 16.9256L15.5936 17.251M15.2287 16.9083C15.2322 16.9051 15.2356 16.9018 15.239 16.8984L15.5936 17.251M2.5069 4.94678L2.50694 4.94679L2.5069 4.94678ZM2.5069 4.94678C2.5185 4.74299 2.60449 4.55055 2.74857 4.40595L2.5069 4.94678Z" stroke="#169FCA"/>
</svg>
