<svg width="20" height="20" viewBox="0 0 20 20" fill="none" xmlns="http://www.w3.org/2000/svg">
<path fill-rule="evenodd" clip-rule="evenodd" d="M6.66683 17.5C6.66683 17.9273 6.34513 18.2795 5.93068 18.3277L5.83349 18.3333L4.16683 18.3333C2.83543 18.3333 1.74711 17.2925 1.67107 15.9802L1.66683 15.8333L1.66683 4.16663C1.66683 2.83522 2.7076 1.74691 4.01993 1.67087L4.16683 1.66663L5.8335 1.66663C6.29373 1.66663 6.66683 2.03972 6.66683 2.49996C6.66683 2.92732 6.34513 3.27955 5.93068 3.32769L5.8335 3.33329L4.16683 3.33329C3.73947 3.33329 3.38724 3.65499 3.3391 4.06944L3.3335 4.16663L3.33349 15.8333C3.33349 16.2607 3.6552 16.6129 4.06964 16.661L4.16683 16.6666L5.83349 16.6666C6.29373 16.6666 6.66683 17.0397 6.66683 17.5ZM18.3243 9.87624L18.3302 9.92493V9.92493L18.3335 9.99996L18.3312 10.0627V10.0627L18.3166 10.1672V10.1672L18.292 10.2601V10.2601L18.2554 10.3526V10.3526L18.2118 10.4339V10.4339L18.1504 10.5212V10.5212L18.0894 10.5892L15.5894 13.0892C15.264 13.4147 14.7363 13.4147 14.4109 13.0892C14.0855 12.7638 14.0855 12.2361 14.4109 11.9107L15.4885 10.8333L7.50016 10.8333C7.03993 10.8333 6.66683 10.4602 6.66683 9.99996C6.66683 9.53972 7.03993 9.16663 7.50016 9.16663L15.4885 9.16663L14.4109 8.08922C14.0855 7.76378 14.0855 7.23614 14.4109 6.9107C14.7363 6.58527 15.264 6.58527 15.5894 6.9107L18.0894 9.4107C18.1189 9.4402 18.1457 9.47136 18.1699 9.50387L18.2296 9.59657V9.59657L18.2741 9.69051V9.69051L18.3036 9.7783V9.7783L18.3243 9.87624V9.87624Z" fill="#EF5555"/>
</svg>
