<svg width="80" height="31" viewBox="0 0 80 31" fill="none" xmlns="http://www.w3.org/2000/svg">
<path d="M76.0804 21.7801H79.2252V12.6676H76.0804V21.7801Z" fill="#165ECA"/>
<path d="M76.3941 9.34584C76.1314 9.57641 76 9.92761 76 10.3995C76 11.3217 76.555 11.7828 77.6649 11.7828C78.7855 11.7828 79.3458 11.3217 79.3458 10.3995C79.3458 9.93834 79.2118 9.58981 78.9437 9.35389C78.6756 9.11796 78.2493 9 77.6649 9C77.0804 9 76.6568 9.11528 76.3941 9.34584Z" fill="#165ECA"/>
<path d="M71.762 15.244H73.7003V12.8875H71.762V12.6462C71.762 12.3137 71.8156 12.0751 71.9228 11.9304C72.0354 11.7802 72.2124 11.7052 72.4537 11.7052C72.8236 11.7052 73.2017 11.7588 73.5877 11.866L74.2633 9.83117C73.77 9.67031 73.3357 9.55771 72.9604 9.49337C72.5904 9.42902 72.1963 9.39685 71.7781 9.39685C70.695 9.39685 69.9068 9.65958 69.4135 10.1851C68.9255 10.7105 68.6816 11.5738 68.6816 12.7749V12.9277L67.4108 13.6998V15.244H68.6172V22H71.762V15.244Z" fill="#165ECA"/>
<path fill-rule="evenodd" clip-rule="evenodd" d="M47.0382 17.0295C47.8157 16.311 48.2044 15.295 48.2044 13.9813C48.2044 12.7856 47.8317 11.8633 47.0864 11.2145C46.3411 10.5657 45.2258 10.2414 43.7406 10.2414H39.6709V22H42.8478V18.0992H43.7406C45.1669 18.0992 46.2661 17.7427 47.0382 17.0295ZM43.4269 15.5094H42.8478V12.807H43.6682C44.5476 12.807 44.9872 13.2038 44.9872 13.9974C44.9872 14.4692 44.8451 14.8392 44.561 15.1073C44.2821 15.3754 43.9041 15.5094 43.4269 15.5094Z" fill="#165ECA"/>
<path d="M56.1749 12.7909C55.9282 12.748 55.6682 12.7266 55.3947 12.7266C54.9175 12.7266 54.443 12.8767 53.9711 13.177C53.5046 13.4719 53.14 13.8606 52.8773 14.3432H52.7245L52.2339 12.8875H49.8934V22H53.0382V17.5202C53.0382 16.9303 53.1937 16.4799 53.5046 16.169C53.8156 15.8526 54.3143 15.6944 55.0006 15.6944C55.4564 15.6944 55.813 15.7266 56.0703 15.7909L56.3518 12.8231L56.1749 12.7909Z" fill="#165ECA"/>
<path fill-rule="evenodd" clip-rule="evenodd" d="M66.333 17.4236C66.333 18.9143 65.9309 20.0778 65.1266 20.9143C64.3277 21.7453 63.207 22.1609 61.7647 22.1609C60.3813 22.1609 59.2794 21.7346 58.4591 20.8821C57.644 20.0295 57.2365 18.8767 57.2365 17.4236C57.2365 15.9384 57.636 14.7856 58.4349 13.9652C59.2392 13.1395 60.3652 12.7266 61.8129 12.7266C62.7084 12.7266 63.4993 12.9169 64.1856 13.2976C64.8719 13.6783 65.4001 14.2253 65.77 14.9384C66.1454 15.6462 66.333 16.4746 66.333 17.4236ZM60.4296 17.4236C60.4296 18.2065 60.5341 18.8043 60.7432 19.2172C60.9524 19.6247 61.3036 19.8285 61.7969 19.8285C62.2848 19.8285 62.628 19.6247 62.8263 19.2172C63.0301 18.8043 63.132 18.2065 63.132 17.4236C63.132 16.6462 63.0301 16.059 62.8263 15.6623C62.6226 15.2655 62.2741 15.0671 61.7808 15.0671C61.2982 15.0671 60.9524 15.2655 60.7432 15.6623C60.5341 16.0537 60.4296 16.6408 60.4296 17.4236Z" fill="#165ECA"/>
<path fill-rule="evenodd" clip-rule="evenodd" d="M19.7152 0.704141C13.5915 2.64401 9.15344 8.37294 9.15344 15.1384C9.15344 21.9039 13.5915 27.6329 19.7152 29.5727C18.2713 30.0301 16.7337 30.2769 15.1384 30.2769C6.77771 30.2769 0 23.4992 0 15.1384C0 6.77771 6.77771 0 15.1384 0C16.7337 0 18.2713 0.246741 19.7152 0.704141Z" fill="#EF5555"/>
<path fill-rule="evenodd" clip-rule="evenodd" d="M29.777 11.2657C28.0661 17.7504 22.1606 22.5316 15.1384 22.5316C8.11627 22.5316 2.21081 17.7504 0.499865 11.2657C0.173727 12.5018 0 13.7998 0 15.1384C0 23.4991 6.77771 30.2768 15.1384 30.2768C23.4992 30.2768 30.2769 23.4991 30.2769 15.1384C30.2769 13.7998 30.1032 12.5018 29.777 11.2657Z" fill="#165ECA"/>
<path fill-rule="evenodd" clip-rule="evenodd" d="M15.1386 30.2769C23.4994 30.2769 30.2771 23.4992 30.2771 15.1384C30.2771 6.77771 23.4994 0 15.1386 0C13.1282 0 11.2093 0.391908 9.4541 1.1035C16.1429 2.67172 21.1235 8.67553 21.1235 15.8426C21.1235 22.1929 17.2135 27.6299 11.6696 29.8776C12.7836 30.1387 13.945 30.2769 15.1386 30.2769Z" fill="#F0AE4B"/>
</svg>
