<svg width="20" height="20" viewBox="0 0 20 20" fill="none" xmlns="http://www.w3.org/2000/svg">
<path d="M5.3125 6.25H3.75C3.50846 6.27112 3.28208 6.37668 3.11063 6.54813C2.93918 6.71958 2.83362 6.94596 2.8125 7.1875V9.375C2.83362 9.61654 2.93918 9.84292 3.11063 10.0144C3.28208 10.1858 3.50846 10.2914 3.75 10.3125H5.6875M14.375 10.3125H15.9375C16.179 10.2914 16.4054 10.1858 16.5769 10.0144C16.7483 9.84292 16.8539 9.61654 16.875 9.375V7.1875C16.8539 6.94596 16.7483 6.71958 16.5769 6.54813C16.4054 6.37668 16.179 6.27112 15.9375 6.25H14.375V10.3125Z" stroke="#159922" stroke-miterlimit="10" stroke-linecap="round" stroke-linejoin="round"/>
<path d="M7.9375 13.2187C6.46875 12.3125 5.3125 10.375 5.3125 8.125V5C5.3125 1.75 7.75 0.625 9.8125 0.625C11.875 0.625 14.375 1.75 14.375 5V10C14.375 11.25 13.125 12.1875 12.1875 12.1875" stroke="#159922" stroke-miterlimit="10" stroke-linecap="round" stroke-linejoin="round"/>
<path d="M7.5 12.9062V13.75C7.5 14.375 7.625 15.3125 4.1875 15.9375C3.31937 16.0917 2.51685 16.5011 1.88235 17.1133C1.24784 17.7255 0.810108 18.5129 0.625 19.375H19.0625C18.858 18.5116 18.4061 17.7266 17.7623 17.116C17.1184 16.5055 16.3105 16.0959 15.4375 15.9375C12.0938 15.3125 12.1875 14.375 12.1875 13.75V12.1875" stroke="#159922" stroke-miterlimit="10" stroke-linecap="round" stroke-linejoin="round"/>
<path d="M12.1875 12.1875C12.1875 11.9389 12.0887 11.7004 11.9129 11.5246C11.7371 11.3488 11.4986 11.25 11.25 11.25H10.625C10.3764 11.25 10.1379 11.3488 9.96209 11.5246C9.78627 11.7004 9.6875 11.9389 9.6875 12.1875C9.6875 12.4361 9.78627 12.6746 9.96209 12.8504C10.1379 13.0262 10.3764 13.125 10.625 13.125H11.25C11.4986 13.125 11.7371 13.0262 11.9129 12.8504C12.0887 12.6746 12.1875 12.4361 12.1875 12.1875Z" stroke="#159922" stroke-miterlimit="10" stroke-linecap="round" stroke-linejoin="round"/>
<path d="M5.3125 5.625C9.0625 5.625 9.0625 3.125 11.5625 3.125C14.0625 3.125 14.375 5.3125 14.375 5.3125M6.6875 15.1562L9.8125 19.0625L13 15.1562H6.6875Z" stroke="#159922" stroke-miterlimit="10" stroke-linecap="round" stroke-linejoin="round"/>
</svg>
