<svg width="20" height="20" viewBox="0 0 20 20" fill="none" xmlns="http://www.w3.org/2000/svg">
<path d="M8.5625 3.81253C8.84375 2.78128 9.5625 1.50003 11.375 1.50003C11.375 1.50003 16.375 -0.093716 16.375 5.00003C16.375 9.28128 17.3437 9.75003 18.375 10.7813C17.0639 11.0893 15.7218 11.2466 14.375 11.25V11.75C14.375 12.25 14.2813 13.25 16.7813 13.75C19.2813 14.25 19.375 16.25 19.375 16.25H12.8125" stroke="#169FCA" stroke-miterlimit="10" stroke-linecap="round" stroke-linejoin="round"/>
<path d="M11.9062 16.0001C9.40625 15.6564 9.40625 14.7501 9.40625 14.2501V13.9689C10.0428 13.3793 10.4981 12.6205 10.7187 11.7814C11.4687 11.7814 11.6562 10.1876 11.6562 9.96885C11.6562 9.7501 11.5938 8.84385 11.25 8.7501C12.5 4.3751 8.75 2.5001 5.5 4.7501C4.125 4.7501 3.6875 6.7501 4.1875 8.7501C3.84375 8.7501 3.78125 9.6876 3.78125 9.9376C3.78125 10.1876 3.96875 11.7501 4.71875 11.7501C4.96875 12.6564 5.65625 13.4064 6.25 13.9376V14.2501C6.25 14.7501 6.0625 15.6876 3.53125 16.0001C1 16.3126 0.625 18.7501 0.625 18.7501H14.375C14.375 18.7501 14.4062 16.3439 11.9062 16.0001Z" stroke="#169FCA" stroke-miterlimit="10" stroke-linecap="round" stroke-linejoin="round"/>
</svg>
