<svg width="20" height="20" viewBox="0 0 20 20" fill="none" xmlns="http://www.w3.org/2000/svg">
<path d="M10 19.375C12.7787 19.375 15.0312 15.1777 15.0312 10C15.0312 4.82233 12.7787 0.625 10 0.625C7.22132 0.625 4.96875 4.82233 4.96875 10C4.96875 15.1777 7.22132 19.375 10 19.375Z" stroke="#165ECA" stroke-miterlimit="10" stroke-linecap="round" stroke-linejoin="round"/>
<path d="M10 0.625V19.375M1.40625 13.75H18.5938H1.40625ZM1.40625 6.25H18.5938H1.40625Z" stroke="#165ECA" stroke-miterlimit="10" stroke-linecap="round" stroke-linejoin="round"/>
<path d="M10 19.375C15.1777 19.375 19.375 15.1777 19.375 10C19.375 4.82233 15.1777 0.625 10 0.625C4.82233 0.625 0.625 4.82233 0.625 10C0.625 15.1777 4.82233 19.375 10 19.375Z" stroke="#165ECA" stroke-miterlimit="10" stroke-linecap="round" stroke-linejoin="round"/>
</svg>
